<?xml version="1.0" encoding="UTF-8" standalone="no"?>
<svg
   width="12"
   height="10"
   viewBox="0 0 12 10"
   version="1.1"
   id="svg1"
   xmlns="http://www.w3.org/2000/svg"
   xmlns:svg="http://www.w3.org/2000/svg">
  <defs
     id="defs1" />
  <g
     id="layer1">
    <path
       d="M 6.0550099,9.986781 C 6.0474499,9.979222 6.0398919,9.8457553 6.0398919,9.6922534 V 9.4128458 H 6.7921512 7.544448 v 0.2586107 c 0,0.1421596 -0.00756,0.2748703 -0.011339,0.2945277 C 7.52177,9.9962204 7.435979,10 6.7953252,10 6.3968594,10 6.064269,9.9924409 6.0562945,9.9848818 Z M 6.052591,9.0224336 C 5.9853154,8.7970941 6.0563705,7.0450036 6.1727762,6.1012243 6.2491189,5.4786291 6.497808,4.2330988 6.556427,4.1811876 6.5677655,4.1736286 6.6531791,4.1316569 6.7491791,4.0908266 6.9638525,3.9993279 7.182076,3.851499 7.3026021,3.7157646 7.5097164,3.4824854 7.666563,3.1552514 7.7314927,2.8222329 7.7825163,2.560597 7.7655084,2.0068516 7.6974769,1.744573 7.6453194,1.5419186 7.4964098,1.2061779 7.3924766,1.057968 7.3331376,0.9736545 7.3146226,0.9611779 7.2545276,0.9672271 c -0.052535,0.00378 -0.074453,0.0226847 -0.089949,0.0676774 -0.015118,0.049151 -0.00359,0.1047301 0.06954,0.2949075 0.1145159,0.2983102 0.1492875,0.4394499 0.1799017,0.7268334 0.037795,0.350108 -0.015118,0.7530727 -0.1281222,0.9833652 C 7.2121971,3.1901109 7.0761381,3.3610059 6.9476379,3.464526 6.8319882,3.5579134 6.5325045,3.7027205 6.5079761,3.6770106 6.5004161,3.6694478 6.5650471,3.6025277 6.6485707,3.525776 6.821291,3.3662234 6.9796494,3.1334735 7.0458266,2.9409518 7.1032755,2.7738375 7.124815,2.3809302 7.0874015,2.1824726 7.011055,1.7796971 6.7975192,1.5487997 6.529821,1.580143 6.4353366,1.5914854 6.3514311,1.6391245 6.123834,1.812288 5.9669873,1.9317632 5.7746132,1.9310073 5.5143999,1.8103219 5.3511281,1.7343265 5.1802972,1.5524671 5.1587539,1.4315171 5.1209589,1.2235695 5.2573959,1.0689321 5.5705992,0.96480714 5.8109696,0.88503102 6.1647266,0.82756171 6.4187422,0.82756171 c 0.1035553,0 0.1878387,-0.007563 0.1878387,-0.0189052 0,-0.0393211 -0.3242759,-0.0748612 -0.784989,-0.0862036 C 5.2704748,0.70733099 4.9935931,0.73757482 4.5140583,0.86385732 3.8610096,1.0343744 3.4175684,1.2647046 3.0798757,1.6087255 2.9441941,1.7471052 2.9192496,1.7837795 2.9252968,1.8367118 c 0.011339,0.096412 0.059715,0.1156946 0.209003,0.083935 0.2781664,-0.059738 0.3533771,-0.040077 0.6731551,0.1769445 0.1942639,0.1315742 0.3356145,0.1807255 0.5190682,0.1807255 0.2294097,-3.403e-4 0.4350126,-0.1349769 0.5692966,-0.3731714 0.030236,-0.056335 0.063118,-0.1024613 0.069921,-0.1024613 0.00756,0 0.091461,0.044992 0.1885946,0.099815 0.09713,0.054823 0.2649373,0.1376234 0.3730318,0.1841283 C 5.795706,2.2015656 5.9980204,2.3093205 6.0796185,2.3807786 6.366855,2.631828 6.0195235,3.4318968 5.4837525,3.7537996 5.1511616,3.9534292 4.888718,4.0226188 4.461188,4.0229972 L 4.1580775,4.0231862 3.7444184,3.8757315 C 3.0211051,3.6178766 2.6583548,3.5433935 2.1146451,3.541125 1.5878672,3.5391212 1.2408016,3.6114491 0.90443175,3.7929306 0.71357015,3.8961496 0.48257106,4.1290482 0.42346068,4.2783182 0.40078348,4.3372978 0.37583978,4.3853168 0.36903678,4.3853168 0.33502185,4.385581 0.12337341,4.0578936 0.07272899,3.9302138 -0.00512743,3.7336089 -0.02326871,3.4072068 0.03191107,3.2019058 0.14340442,2.7876743 0.47546573,2.3730647 0.96463815,2.0372104 1.3427708,1.777465 2.051982,1.4291718 2.5237691,1.2712073 2.6152311,1.2409596 2.6515141,1.212982 2.7036704,1.1343398 2.7743464,1.0277195 2.9039805,0.93735658 3.215973,0.77704807 3.8542817,0.44924729 4.691994,0.20126035 5.5708637,0.08034829 6.7999366,-0.08865635 7.7627482,0.06144383 7.7627482,0.06144383 9.1631426,0.24216915 10.256193,1.08292 10.919258,2.4889858 c 0.22639,0.4800564 0.372654,0.9051012 0.539741,1.5694373 0.250953,0.9966356 0.443441,2.2704848 0.538721,3.5622173 0.0076,0.1051088 -0.003,0.1187189 -0.04157,0.054066 C 11.89568,7.574137 11.459949,7.0769142 11.307864,6.9349428 10.755311,6.4191571 10.14701,6.1413392 9.3465639,6.0391803 9.1386936,6.0127236 8.5154658,6.0202826 8.1823462,6.0542984 L 8.045909,6.0694166 8.0458712,5.7438854 C 8.0457906,5.3417907 8.0194095,4.4973346 8.0080709,4.5095089 7.9891733,4.5321861 7.822122,5.2197065 7.7624092,5.531628 7.6059405,6.3473494 7.5647437,6.8366311 7.5469799,8.0801197 L 7.5318619,9.042879 6.7953631,9.0504381 C 6.2170338,9.0542176 6.0570124,9.0502113 6.0502852,9.0277609 Z M 5.1028562,8.7857517 C 4.9924966,8.7668472 4.8269575,8.7040847 4.7103617,8.6371635 4.2535415,8.375906 4.0075378,7.917627 3.8596486,7.051809 3.7961541,6.6801501 3.762895,6.7194713 4.3031274,6.5250215 4.6542372,6.3983622 4.6364738,6.4456233 4.4800052,6.0602395 4.2154447,5.4076623 3.7407854,4.7742542 3.2368731,4.402028 2.7083946,4.0116159 2.1938621,3.8370532 1.5557042,3.8316844 1.3739135,3.8296805 1.2363417,3.8241253 1.2503256,3.8127867 1.3436776,3.7590985 1.671128,3.7152404 1.9735208,3.7156184 2.4365773,3.7162233 2.7501193,3.7832958 3.128252,3.9621308 3.40982,4.0955937 3.59471,4.2438043 4.0418547,4.6943707 4.5281548,5.1845599 4.6027986,5.2520106 4.785837,5.3664953 c 0.1587364,0.099436 0.2328151,0.1017034 0.3696302,0.011339 0.057827,-0.03781 0.1088466,-0.065031 0.1133821,-0.060495 0.022677,0.022677 -0.067654,0.2540754 -0.1285002,0.3259092 -0.073701,0.086959 -0.2543546,0.1879108 -0.3371263,0.1882887 -0.026457,7.56e-5 -0.049134,0.00378 -0.049134,0.00756 0,0.00378 0.026457,0.068432 0.057449,0.1417816 0.1088466,0.2521818 0.1999332,0.5650504 0.3125593,1.0731988 0.062362,0.2801616 0.122075,0.5326102 0.1326577,0.5606642 0.030236,0.079397 0.1039332,0.062385 0.2604019,-0.060873 0.09902,-0.077885 0.1439962,-0.1017034 0.1489096,-0.079019 0.00359,0.018898 -0.00363,0.1417816 -0.015118,0.2756262 -0.015118,0.1338409 -0.030236,0.4116603 -0.037795,0.6172261 -0.00756,0.2056784 -0.022677,0.3865177 -0.034016,0.4020951 -0.022677,0.026457 -0.3401499,0.037807 -0.4740926,0.011339 z M 7.9498303,7.2326479 c 0.00378,-0.065409 0.015118,-0.2484022 0.022677,-0.406443 0.00756,-0.1606868 0.022677,-0.3024685 0.038551,-0.3213737 0.034016,-0.047259 0.5191057,-0.1047308 0.88076,-0.1047308 0.3238979,0 0.6714924,0.042346 1.0087691,0.1224984 0.2362166,0.056334 0.4805186,0.1459429 0.4034176,0.1482106 -0.02268,6.051e-4 -0.176123,0.011339 -0.3378828,0.022677 C 9.302453,6.7445294 8.7698926,6.903704 8.184307,7.2256431 c -0.1247207,0.06881 -0.2305474,0.12477 -0.2347049,0.12477 -0.00378,0 -0.00378,-0.053688 0.00121,-0.1190969 z"
       style="fill:#6da1d3;fill-opacity:1;stroke-width:0"
       id="SubSeth_Logo" />
  </g>
</svg>
