<svg xmlns="http://www.w3.org/2000/svg" width="60" height="380" viewBox="0 0 60 380">
  <style>
    text {
      font-style: normal;
      font-variant: normal;
      font-weight: normal;
      font-stretch: normal;
      font-family: Montserrat;
      font-variant-ligatures: discretionary-ligatures;
      font-variant-caps: small-caps;
      font-variant-numeric: lining-nums tabular-nums;
      text-anchor: middle;
      fill-opacity: 1;
    }
  </style>
  <rect x="0" y="0" width="60" height="380" fill="#294F77"/>

  <text x="30" y="10"
      style="font-style:normal;
      	font-variant:normal;
	font-weight:500;
	font-stretch:normal;
	font-size:10px;
	font-family:Montserrat;
	font-variation-settings:'wght' 550;
	font-variant-ligatures:discretionary-ligatures;
	font-variant-caps:small-caps;
	font-variant-numeric:lining-nums tabular-nums;
	text-anchor:middle;fill:#6da1d3;fill-opacity:1"
      >U-Pol-M</text>

  <rect x="12" y="30" width="36" height="38" rx="4" fill="#162D50"/>
  <text x="30" y="40"
      style="font-style:normal;
      	font-variant:normal;
	font-weight:500;
	font-stretch:normal;
	font-size:8px;
	font-family:Montserrat;
	font-variation-settings:'wght' 550;
	font-variant-ligatures:discretionary-ligatures;
	font-variant-caps:small-caps;
	font-variant-numeric:lining-nums tabular-nums;
	text-anchor:middle;fill:#ffffff;fill-opacity:1"
      >POLY</text>

  <g fill="#162D50" opacity="0.22">
    <circle cx="17" cy="92" r="10"/>
    <circle cx="43" cy="108" r="10"/>
    <circle cx="17" cy="124" r="10"/>
    <circle cx="43" cy="140" r="10"/>
    <circle cx="17" cy="156" r="10"/>
    <circle cx="43" cy="172" r="10"/>
    <circle cx="17" cy="188" r="10"/>
    <circle cx="43" cy="204" r="10"/>
    <circle cx="17" cy="220" r="10"/>
    <circle cx="43" cy="236" r="10"/>
    <circle cx="17" cy="252" r="10"/>
    <circle cx="43" cy="268" r="10"/>
    <circle cx="17" cy="284" r="10"/>
    <circle cx="43" cy="300" r="10"/>
    <circle cx="17" cy="316" r="10"/>
    <circle cx="43" cy="332" r="10"/>
  </g>

  <g id="SubSethLogo" transform="translate(24 366)">
    <path
      id="SubSeth_Logo"
      style="fill:#6da1d3;fill-opacity:1;stroke-width:0"
      d="
        M 6.055,9.987
        C 6.047,9.979 6.04,9.846 6.04,9.692
        V 9.413
        H 6.792
          7.544
        v 0.259
        c 0,0.142 -0.008,0.275 -0.011,0.295
        C 7.522,9.996 7.436,10 6.795,10
          6.397,10 6.064,9.992 6.056,9.985
        Z
        M 6.053,9.022
        C 5.985,8.797 6.056,7.045 6.173,6.101
          6.249,5.479 6.498,4.233 6.556,4.181
          6.568,4.174 6.653,4.132 6.749,4.091
          6.964,3.999 7.182,3.851 7.303,3.716
          7.51,3.482 7.667,3.155 7.731,2.822
          7.783,2.561 7.766,2.007 7.697,1.745
          7.645,1.542 7.496,1.206 7.392,1.058
          7.333,0.974 7.315,0.961 7.255,0.967
        c -0.053,0.004 -0.074,0.023 -0.09,0.068
          -0.015,0.049 -0.004,0.105 0.07,0.295
          0.115,0.298 0.149,0.439 0.18,0.727
          0.038,0.35 -0.015,0.753 -0.128,0.983
        C 7.212,3.19 7.076,3.361 6.948,3.465
          6.832,3.558 6.533,3.703 6.508,3.677
          6.5,3.669 6.565,3.603 6.649,3.526
          6.821,3.366 6.98,3.133 7.046,2.941
          7.103,2.774 7.125,2.381 7.087,2.182
          7.011,1.78 6.798,1.549 6.53,1.58
          6.435,1.591 6.351,1.639 6.124,1.812
          5.967,1.932 5.775,1.931 5.514,1.81
          5.351,1.734 5.18,1.552 5.159,1.432
          5.121,1.224 5.257,1.069 5.571,0.965
          5.811,0.885 6.165,0.828 6.419,0.828
        c 0.104,0 0.188,-0.008 0.188,-0.019
          0,-0.039 -0.324,-0.075 -0.785,-0.086
        C 5.27,0.707 4.994,0.738 4.514,0.864
          3.861,1.034 3.418,1.265 3.08,1.609
          2.944,1.747 2.919,1.784 2.925,1.837
        c 0.011,0.096 0.06,0.116 0.209,0.084
          0.278,-0.06 0.353,-0.04 0.673,0.177
          0.194,0.132 0.336,0.181 0.519,0.181
          0.229,0 0.435,-0.135 0.569,-0.373
          0.03,-0.056 0.063,-0.102 0.07,-0.102
          0.008,0 0.091,0.045 0.189,0.1
          0.097,0.055 0.265,0.138 0.373,0.184
        C 5.796,2.202 5.998,2.309 6.08,2.381
          6.367,2.632 6.02,3.432 5.484,3.754
          5.151,3.953 4.889,4.023 4.461,4.023
        L 4.158,4.023
          3.744,3.876
        C 3.021,3.618 2.658,3.543 2.115,3.541
          1.588,3.539 1.241,3.611 0.904,3.793
          0.714,3.896 0.483,4.129 0.423,4.278
          0.401,4.337 0.376,4.385 0.369,4.385
          0.335,4.386 0.123,4.058 0.073,3.93
          -0.005,3.734 -0.023,3.407 0.032,3.202
          0.143,2.788 0.475,2.373 0.965,2.037
          1.343,1.777 2.052,1.429 2.524,1.271
          2.615,1.241 2.652,1.213 2.704,1.134
          2.774,1.028 2.904,0.937 3.216,0.777
          3.854,0.449 4.692,0.201 5.571,0.08
          6.8,-0.089 7.763,0.061 7.763,0.061
          9.163,0.242 10.256,1.083 10.919,2.489
        c 0.226,0.48 0.373,0.905 0.54,1.569
          0.251,0.997 0.443,2.27 0.539,3.562
          0.008,0.105 -0.003,0.119 -0.042,0.054
        C 11.896,7.574 11.46,7.077 11.308,6.935
          10.755,6.419 10.147,6.141 9.347,6.039
          9.139,6.013 8.515,6.02 8.182,6.054
        L 8.046,6.069
          8.046,5.744
        C 8.046,5.342 8.019,4.497 8.008,4.51
          7.989,4.532 7.822,5.22 7.762,5.532
          7.606,6.347 7.565,6.837 7.547,8.08
        L 7.532,9.043
      " />
  </g>

</svg>
